<svg width="1081.6" height="79.877" viewBox="0 0 1081.6 79.877" xmlns="http://www.w3.org/2000/svg"><g id="svgGroup" stroke-linecap="round" fill-rule="evenodd" font-size="9pt" stroke="#000" stroke-width="0.25mm" fill="#000" style="stroke:#000;stroke-width:0.25mm;fill:#000"><path d="M 1006.7 0.4 L 1034.9 61.5 L 1061.9 0.4 A 0.078 0.078 0 0 1 1061.95 0.425 Q 1062.038 0.506 1062.177 0.845 A 5.758 5.758 0 0 1 1062.2 0.9 A 2.955 2.955 0 0 1 1062.293 1.184 Q 1062.468 1.806 1062.73 3.284 A 71.818 71.818 0 0 1 1062.75 3.4 A 159.356 159.356 0 0 1 1062.944 4.534 Q 1063.255 6.392 1063.727 9.4 A 945.5 945.5 0 0 1 1063.75 9.55 Q 1064.248 12.727 1064.95 17.722 A 1194.387 1194.387 0 0 1 1065.4 20.95 A 12571.318 12571.318 0 0 1 1065.931 24.806 Q 1066.775 30.938 1067.9 39.15 Q 1069.4 50.1 1071.5 65.8 Q 1072 69.7 1073.35 72.15 Q 1074.472 74.185 1075.766 75.462 A 9.334 9.334 0 0 0 1076.3 75.95 Q 1077.9 77.3 1079.35 77.75 A 15.639 15.639 0 0 0 1080.114 77.968 Q 1080.829 78.15 1081.337 78.189 A 3.421 3.421 0 0 0 1081.6 78.2 L 1058 78.2 A 38.586 38.586 0 0 0 1059.023 77.473 Q 1059.927 76.808 1060.55 76.25 A 10.381 10.381 0 0 0 1061.168 75.652 Q 1061.446 75.359 1061.658 75.078 A 4.784 4.784 0 0 0 1061.95 74.65 A 3.341 3.341 0 0 0 1062.273 73.947 A 2.611 2.611 0 0 0 1062.4 73.15 A 13.495 13.495 0 0 0 1062.386 72.552 Q 1062.371 72.223 1062.341 71.855 A 24.688 24.688 0 0 0 1062.3 71.4 L 1056.3 24.7 Q 1051.2 36.2 1045.3 49.55 Q 1039.4 62.9 1031.8 78.4 L 1007.9 26.9 Q 1006.1 41.9 1005.05 50.6 Q 1004.246 57.261 1003.735 61.489 A 34631.663 34631.663 0 0 1 1003.45 63.85 Q 1003.001 67.567 1002.852 69.248 A 30.543 30.543 0 0 0 1002.8 69.9 A 89.593 89.593 0 0 0 1002.757 70.589 Q 1002.7 71.549 1002.7 72 Q 1002.7 72.8 1002.85 73.6 Q 1002.987 74.329 1003.622 75.017 A 4.664 4.664 0 0 0 1003.75 75.15 A 5.482 5.482 0 0 0 1004.354 75.666 Q 1004.685 75.912 1005.096 76.158 A 13.695 13.695 0 0 0 1006 76.65 A 12.831 12.831 0 0 0 1007.055 77.114 Q 1008.258 77.585 1009.956 78.036 A 43.259 43.259 0 0 0 1010.2 78.1 L 988.6 78.2 A 10.574 10.574 0 0 0 991.116 77.795 A 6.81 6.81 0 0 0 994.8 75.25 A 13.394 13.394 0 0 0 996.956 70.534 A 16.719 16.719 0 0 0 997.3 68.7 L 1006.7 0.4 Z M 283.7 34.9 L 321.9 34.9 Q 322.694 34.9 322.857 34.27 A 1.473 1.473 0 0 0 322.9 33.9 Q 322.9 29.2 322.95 24.55 Q 323 19.9 323 15.2 Q 323 12.338 322.88 10.475 A 34.384 34.384 0 0 0 322.85 10.05 A 9.814 9.814 0 0 0 322.631 8.579 Q 322.448 7.794 322.135 7.15 A 5.532 5.532 0 0 0 321.95 6.8 A 5.287 5.287 0 0 0 320.621 5.288 A 7.013 7.013 0 0 0 319.65 4.65 A 14.908 14.908 0 0 0 318.559 4.114 Q 317.314 3.558 315.553 2.982 A 50.208 50.208 0 0 0 315.3 2.9 L 328.2 3.2 Q 331.3 3.2 334.3 3.05 Q 337.3 2.9 340.2 2.9 Q 338.7 2.9 337.45 3.85 A 7.191 7.191 0 0 0 336.089 5.225 A 9.564 9.564 0 0 0 335.3 6.45 Q 334.414 8.074 333.867 10.28 A 22.177 22.177 0 0 0 333.85 10.35 A 19.578 19.578 0 0 0 333.313 14.325 A 22.21 22.21 0 0 0 333.3 15.1 Q 333.3 24 333.35 32.8 Q 333.4 41.6 333.4 50.5 Q 333.4 55.7 333.35 60.85 A 96.412 96.412 0 0 0 333.345 61.786 A 95.402 95.402 0 0 0 333.8 71.1 A 4.635 4.635 0 0 0 334.116 72.389 A 6.345 6.345 0 0 0 334.6 73.35 A 10.375 10.375 0 0 0 336.077 75.232 A 11.774 11.774 0 0 0 336.35 75.5 Q 337.4 76.5 338.65 77.2 A 11.03 11.03 0 0 0 340.04 77.861 A 8.847 8.847 0 0 0 341.1 78.2 L 315.5 78.2 A 25.685 25.685 0 0 0 317.032 77.638 Q 318.381 77.091 319.3 76.5 Q 320.37 75.812 321.031 75.095 A 5.27 5.27 0 0 0 321.4 74.65 Q 322.037 73.786 322.26 72.963 A 3.648 3.648 0 0 0 322.3 72.8 Q 322.5 71.9 322.6 71 Q 322.8 68.3 322.9 65.5 Q 323 62.7 323 60 Q 323 55.1 322.95 50.3 Q 322.9 45.5 322.9 40.7 A 1.156 1.156 0 0 0 322.845 40.328 Q 322.67 39.813 321.936 39.8 A 2.163 2.163 0 0 0 321.9 39.8 L 283.7 39.8 Q 282.714 39.8 282.612 40.523 A 1.265 1.265 0 0 0 282.6 40.7 L 282.6 58 Q 282.6 61.3 282.5 64.55 Q 282.4 67.8 282.7 71.1 Q 282.9 73.5 284.75 75.55 Q 286.6 77.6 289.1 78.2 L 264.3 78.2 A 7.062 7.062 0 0 0 266.581 77.849 A 5.735 5.735 0 0 0 269.5 75.6 A 13.46 13.46 0 0 0 271.494 71.091 A 16.529 16.529 0 0 0 271.8 69.5 Q 271.9 68.6 271.95 67.55 Q 271.988 66.746 272.027 65.327 A 294.343 294.343 0 0 0 272.05 64.4 Q 272.088 62.792 272.127 60.246 A 1082.956 1082.956 0 0 0 272.15 58.6 Q 272.2 54.9 272.2 48.65 Q 272.2 42.4 272.15 33.1 Q 272.116 26.706 272.058 18.469 A 14777.115 14777.115 0 0 0 272 10.6 A 18.797 18.797 0 0 0 271.841 9.313 Q 271.734 8.653 271.587 8.1 A 7.61 7.61 0 0 0 271.25 7.1 Q 270.71 5.823 269.832 5.125 A 3.781 3.781 0 0 0 269.8 5.1 A 6.385 6.385 0 0 0 268.752 4.445 Q 268.238 4.185 267.631 3.977 A 10.564 10.564 0 0 0 267.55 3.95 L 264.4 2.9 L 289.6 2.9 A 26.259 26.259 0 0 0 288.26 3.405 Q 287.577 3.685 287.012 3.972 A 10.64 10.64 0 0 0 286 4.55 A 8.376 8.376 0 0 0 285.051 5.265 Q 284.57 5.688 284.23 6.143 A 4.72 4.72 0 0 0 284.05 6.4 A 7.34 7.34 0 0 0 283.452 7.509 A 5.895 5.895 0 0 0 283.15 8.4 Q 282.9 9.4 282.8 10.4 L 282.6 33.9 A 1.297 1.297 0 0 0 282.66 34.313 Q 282.854 34.889 283.669 34.9 A 2.37 2.37 0 0 0 283.7 34.9 Z M 20 8.9 L 20 34.4 A 2.614 2.614 0 0 0 20.045 34.911 Q 20.206 35.713 20.935 35.791 A 1.541 1.541 0 0 0 21.1 35.8 Q 29.151 35.8 34.481 35.76 A 857.97 857.97 0 0 0 35.7 35.75 Q 40.48 35.707 43.62 35.519 A 70.897 70.897 0 0 0 44.65 35.45 Q 47.387 35.246 48.955 34.808 A 7.852 7.852 0 0 0 49.6 34.6 Q 51.2 34 52.1 32.8 A 39.23 39.23 0 0 1 52.094 33.466 Q 52.075 34.563 52 36.25 A 82.07 82.07 0 0 1 51.792 39.462 A 96.596 96.596 0 0 1 51.65 41 Q 51.4 43.5 51.15 45.75 Q 50.9 48 50.8 49.1 A 12.085 12.085 0 0 0 50.508 47.099 Q 50.244 45.993 49.767 45.11 A 6.474 6.474 0 0 0 49.25 44.3 Q 47.9 42.5 45.9 41.6 Q 43.9 40.7 41.5 40.4 A 38.551 38.551 0 0 0 38.083 40.121 A 33.467 33.467 0 0 0 36.9 40.1 Q 32.6 40.1 28.95 40.2 Q 25.3 40.3 21 40.3 A 1.083 1.083 0 0 0 20.551 40.386 Q 20.088 40.596 20.014 41.311 A 2.824 2.824 0 0 0 20 41.6 Q 20 48.8 19.95 56.05 Q 19.9 63.3 19.9 70.5 Q 19.9 71.954 20.542 72.784 A 2.576 2.576 0 0 0 21.65 73.6 Q 23.4 74.3 25.3 74.2 Q 26.448 74.2 28.242 74.229 A 402.247 402.247 0 0 1 29.4 74.25 A 92.567 92.567 0 0 0 31.074 74.267 Q 32.969 74.269 35.1 74.2 Q 38.2 74.1 41.4 73.6 Q 44.6 73.1 47.5 72 Q 50.4 70.9 52.55 68.9 A 11.328 11.328 0 0 0 55.246 65.014 A 13.925 13.925 0 0 0 55.7 63.8 Q 56.253 67.826 55.964 70.917 A 18.694 18.694 0 0 1 55.75 72.5 Q 55.1 76.1 54 78.2 L 1.5 78.2 A 2.08 2.08 0 0 1 1.399 78.198 Q 0.877 78.172 1.744 77.852 A 9.074 9.074 0 0 1 1.75 77.85 A 9.95 9.95 0 0 0 2.397 77.582 Q 3.06 77.283 3.915 76.81 A 34.109 34.109 0 0 0 4.2 76.65 A 13.413 13.413 0 0 0 5.964 75.447 A 17.026 17.026 0 0 0 7.15 74.4 Q 8.6 73 9 71 A 22.252 22.252 0 0 0 9.211 69.566 A 26.43 26.43 0 0 0 9.3 68.65 Q 9.377 67.693 9.424 66.15 A 119.447 119.447 0 0 0 9.45 65.15 Q 9.5 62.9 9.55 59.35 Q 9.6 55.8 9.55 50.2 A 1102.19 1102.19 0 0 1 9.52 45.648 Q 9.51 43.605 9.505 41.318 A 2261.282 2261.282 0 0 1 9.5 36.5 L 9.5 17.1 L 9.5 13.75 Q 9.5 12.1 9.3 10.4 Q 9.1 8.5 7.8 7.15 Q 6.5 5.8 4.9 4.9 Q 3.3 4 1.85 3.55 A 31.218 31.218 0 0 0 1.343 3.397 Q 0.325 3.1 0 3.1 L 18.55 3.1 L 30.7 3.1 L 38.4 3.1 L 43.6 3.1 L 48.25 3.1 L 54.3 3.1 A 8.685 8.685 0 0 1 54.344 3.572 Q 54.399 4.369 54.4 5.786 A 74.967 74.967 0 0 1 54.4 5.85 Q 54.4 7.8 54.15 9.95 A 69.368 69.368 0 0 1 53.719 13.063 A 60.707 60.707 0 0 1 53.55 14.05 Q 53.2 16 52.7 16.7 Q 52.9 14.2 51.85 12.55 A 8.155 8.155 0 0 0 49.222 9.984 A 9.545 9.545 0 0 0 49 9.85 A 12.136 12.136 0 0 0 46.401 8.73 A 15.12 15.12 0 0 0 44.85 8.35 Q 42.5 7.9 40.2 7.7 A 52.727 52.727 0 0 0 36.879 7.513 A 45.729 45.729 0 0 0 35.8 7.5 L 32.4 7.5 Q 29.65 7.5 27.454 7.537 A 196.03 196.03 0 0 0 26.75 7.55 A 223.139 223.139 0 0 1 24.463 7.584 Q 22.9 7.6 21.1 7.6 Q 20.067 7.6 20.004 8.747 A 2.803 2.803 0 0 0 20 8.9 Z M 613.8 8.9 L 613.8 34.4 A 2.614 2.614 0 0 0 613.845 34.911 Q 614.006 35.713 614.735 35.791 A 1.541 1.541 0 0 0 614.9 35.8 Q 622.951 35.8 628.281 35.76 A 857.97 857.97 0 0 0 629.5 35.75 Q 634.28 35.707 637.42 35.519 A 70.897 70.897 0 0 0 638.45 35.45 Q 641.187 35.246 642.755 34.808 A 7.852 7.852 0 0 0 643.4 34.6 Q 645 34 645.9 32.8 A 39.23 39.23 0 0 1 645.894 33.466 Q 645.875 34.563 645.8 36.25 A 82.07 82.07 0 0 1 645.592 39.462 A 96.596 96.596 0 0 1 645.45 41 Q 645.2 43.5 644.95 45.75 Q 644.7 48 644.6 49.1 A 12.085 12.085 0 0 0 644.308 47.099 Q 644.044 45.993 643.567 45.11 A 6.474 6.474 0 0 0 643.05 44.3 Q 641.7 42.5 639.7 41.6 Q 637.7 40.7 635.3 40.4 A 38.551 38.551 0 0 0 631.883 40.121 A 33.467 33.467 0 0 0 630.7 40.1 Q 626.4 40.1 622.75 40.2 Q 619.1 40.3 614.8 40.3 A 1.083 1.083 0 0 0 614.351 40.386 Q 613.888 40.596 613.814 41.311 A 2.824 2.824 0 0 0 613.8 41.6 Q 613.8 48.8 613.75 56.05 Q 613.7 63.3 613.7 70.5 Q 613.7 71.954 614.342 72.784 A 2.576 2.576 0 0 0 615.45 73.6 Q 617.2 74.3 619.1 74.2 Q 620.248 74.2 622.042 74.229 A 402.247 402.247 0 0 1 623.2 74.25 A 92.567 92.567 0 0 0 624.874 74.267 Q 626.769 74.269 628.9 74.2 Q 632 74.1 635.2 73.6 Q 638.4 73.1 641.3 72 Q 644.2 70.9 646.35 68.9 A 11.328 11.328 0 0 0 649.046 65.014 A 13.925 13.925 0 0 0 649.5 63.8 Q 650.053 67.826 649.764 70.917 A 18.694 18.694 0 0 1 649.55 72.5 Q 648.9 76.1 647.8 78.2 L 595.3 78.2 A 2.08 2.08 0 0 1 595.199 78.198 Q 594.677 78.172 595.544 77.852 A 9.074 9.074 0 0 1 595.55 77.85 A 9.95 9.95 0 0 0 596.197 77.582 Q 596.86 77.283 597.715 76.81 A 34.109 34.109 0 0 0 598 76.65 A 13.413 13.413 0 0 0 599.764 75.447 A 17.026 17.026 0 0 0 600.95 74.4 Q 602.4 73 602.8 71 A 22.252 22.252 0 0 0 603.011 69.566 A 26.43 26.43 0 0 0 603.1 68.65 Q 603.177 67.693 603.224 66.15 A 119.447 119.447 0 0 0 603.25 65.15 Q 603.3 62.9 603.35 59.35 Q 603.4 55.8 603.35 50.2 A 1102.19 1102.19 0 0 1 603.32 45.648 Q 603.31 43.605 603.305 41.318 A 2261.282 2261.282 0 0 1 603.3 36.5 L 603.3 17.1 L 603.3 13.75 Q 603.3 12.1 603.1 10.4 Q 602.9 8.5 601.6 7.15 Q 600.3 5.8 598.7 4.9 Q 597.1 4 595.65 3.55 A 31.218 31.218 0 0 0 595.143 3.397 Q 594.125 3.1 593.8 3.1 L 612.35 3.1 L 624.5 3.1 L 632.2 3.1 L 637.4 3.1 L 642.05 3.1 L 648.1 3.1 A 8.685 8.685 0 0 1 648.144 3.572 Q 648.199 4.369 648.2 5.786 A 74.967 74.967 0 0 1 648.2 5.85 Q 648.2 7.8 647.95 9.95 A 69.368 69.368 0 0 1 647.519 13.063 A 60.707 60.707 0 0 1 647.35 14.05 Q 647 16 646.5 16.7 Q 646.7 14.2 645.65 12.55 A 8.155 8.155 0 0 0 643.022 9.984 A 9.545 9.545 0 0 0 642.8 9.85 A 12.136 12.136 0 0 0 640.201 8.73 A 15.12 15.12 0 0 0 638.65 8.35 Q 636.3 7.9 634 7.7 A 52.727 52.727 0 0 0 630.679 7.513 A 45.729 45.729 0 0 0 629.6 7.5 L 626.2 7.5 Q 623.45 7.5 621.254 7.537 A 196.03 196.03 0 0 0 620.55 7.55 A 223.139 223.139 0 0 1 618.263 7.584 Q 616.7 7.6 614.9 7.6 Q 613.867 7.6 613.804 8.747 A 2.803 2.803 0 0 0 613.8 8.9 Z M 843.4 8.9 L 843.4 34.4 A 2.614 2.614 0 0 0 843.445 34.911 Q 843.606 35.713 844.335 35.791 A 1.541 1.541 0 0 0 844.5 35.8 Q 852.551 35.8 857.881 35.76 A 857.97 857.97 0 0 0 859.1 35.75 Q 863.88 35.707 867.02 35.519 A 70.897 70.897 0 0 0 868.05 35.45 Q 870.787 35.246 872.355 34.808 A 7.852 7.852 0 0 0 873 34.6 Q 874.6 34 875.5 32.8 A 39.23 39.23 0 0 1 875.494 33.466 Q 875.475 34.563 875.4 36.25 A 82.07 82.07 0 0 1 875.192 39.462 A 96.596 96.596 0 0 1 875.05 41 Q 874.8 43.5 874.55 45.75 Q 874.3 48 874.2 49.1 A 12.085 12.085 0 0 0 873.908 47.099 Q 873.644 45.993 873.167 45.11 A 6.474 6.474 0 0 0 872.65 44.3 Q 871.3 42.5 869.3 41.6 Q 867.3 40.7 864.9 40.4 A 38.551 38.551 0 0 0 861.483 40.121 A 33.467 33.467 0 0 0 860.3 40.1 Q 856 40.1 852.35 40.2 Q 848.7 40.3 844.4 40.3 A 1.083 1.083 0 0 0 843.951 40.386 Q 843.488 40.596 843.414 41.311 A 2.824 2.824 0 0 0 843.4 41.6 Q 843.4 48.8 843.35 56.05 Q 843.3 63.3 843.3 70.5 Q 843.3 71.954 843.942 72.784 A 2.576 2.576 0 0 0 845.05 73.6 Q 846.8 74.3 848.7 74.2 Q 849.848 74.2 851.642 74.229 A 402.247 402.247 0 0 1 852.8 74.25 A 92.567 92.567 0 0 0 854.474 74.267 Q 856.369 74.269 858.5 74.2 Q 861.6 74.1 864.8 73.6 Q 868 73.1 870.9 72 Q 873.8 70.9 875.95 68.9 A 11.328 11.328 0 0 0 878.646 65.014 A 13.925 13.925 0 0 0 879.1 63.8 Q 879.653 67.826 879.364 70.917 A 18.694 18.694 0 0 1 879.15 72.5 Q 878.5 76.1 877.4 78.2 L 824.9 78.2 A 2.08 2.08 0 0 1 824.799 78.198 Q 824.277 78.172 825.144 77.852 A 9.074 9.074 0 0 1 825.15 77.85 A 9.95 9.95 0 0 0 825.797 77.582 Q 826.46 77.283 827.315 76.81 A 34.109 34.109 0 0 0 827.6 76.65 A 13.413 13.413 0 0 0 829.364 75.447 A 17.026 17.026 0 0 0 830.55 74.4 Q 832 73 832.4 71 A 22.252 22.252 0 0 0 832.611 69.566 A 26.43 26.43 0 0 0 832.7 68.65 Q 832.777 67.693 832.824 66.15 A 119.447 119.447 0 0 0 832.85 65.15 Q 832.9 62.9 832.95 59.35 Q 833 55.8 832.95 50.2 A 1102.19 1102.19 0 0 1 832.92 45.648 Q 832.91 43.605 832.905 41.318 A 2261.282 2261.282 0 0 1 832.9 36.5 L 832.9 17.1 L 832.9 13.75 Q 832.9 12.1 832.7 10.4 Q 832.5 8.5 831.2 7.15 Q 829.9 5.8 828.3 4.9 Q 826.7 4 825.25 3.55 A 31.218 31.218 0 0 0 824.743 3.397 Q 823.725 3.1 823.4 3.1 L 841.95 3.1 L 854.1 3.1 L 861.8 3.1 L 867 3.1 L 871.65 3.1 L 877.7 3.1 A 8.685 8.685 0 0 1 877.744 3.572 Q 877.799 4.369 877.8 5.786 A 74.967 74.967 0 0 1 877.8 5.85 Q 877.8 7.8 877.55 9.95 A 69.368 69.368 0 0 1 877.119 13.063 A 60.707 60.707 0 0 1 876.95 14.05 Q 876.6 16 876.1 16.7 Q 876.3 14.2 875.25 12.55 A 8.155 8.155 0 0 0 872.622 9.984 A 9.545 9.545 0 0 0 872.4 9.85 A 12.136 12.136 0 0 0 869.801 8.73 A 15.12 15.12 0 0 0 868.25 8.35 Q 865.9 7.9 863.6 7.7 A 52.727 52.727 0 0 0 860.279 7.513 A 45.729 45.729 0 0 0 859.2 7.5 L 855.8 7.5 Q 853.05 7.5 850.854 7.537 A 196.03 196.03 0 0 0 850.15 7.55 A 223.139 223.139 0 0 1 847.863 7.584 Q 846.3 7.6 844.5 7.6 Q 843.467 7.6 843.404 8.747 A 2.803 2.803 0 0 0 843.4 8.9 Z M 935.2 12.6 L 920 36.6 Q 922.3 40.5 924.5 44.35 Q 926.7 48.2 928.9 52.2 Q 931.6 57.3 934.35 62.4 Q 937.1 67.5 940.3 72.3 A 11.497 11.497 0 0 0 941.984 74.348 A 8.825 8.825 0 0 0 944.4 76 A 124.428 124.428 0 0 0 948.005 77.581 A 144.235 144.235 0 0 0 949.5 78.2 L 925.1 78.2 Q 929 76.9 928.2 74.4 Q 928 73.8 927 71.7 A 216.84 216.84 0 0 0 926.194 70.027 Q 925.834 69.288 925.436 68.482 A 387.387 387.387 0 0 0 924.6 66.8 Q 923.2 64 921.5 60.75 Q 919.8 57.5 918.3 54.6 A 1999.725 1999.725 0 0 0 916.96 52.013 Q 916.238 50.622 915.6 49.4 Q 914.495 47.282 913.984 46.352 A 37.132 37.132 0 0 0 913.9 46.2 Q 912.2 49.4 910.5 52.05 Q 908.8 54.7 907.15 57.3 Q 905.5 59.9 903.8 62.6 Q 902.1 65.3 900.4 68.4 Q 899.976 69.249 899.264 70.241 A 21.165 21.165 0 0 1 899 70.6 Q 898.321 71.505 898.155 72.353 A 2.828 2.828 0 0 0 898.1 72.9 A 5.232 5.232 0 0 0 898.246 74.161 A 4.281 4.281 0 0 0 898.65 75.2 Q 899.2 76.2 900.1 76.85 Q 901 77.5 902.05 77.85 A 7.345 7.345 0 0 0 903.001 78.101 A 5.357 5.357 0 0 0 904 78.2 L 881.3 78.2 A 23.058 23.058 0 0 0 884.969 76.934 A 18.753 18.753 0 0 0 887.45 75.6 A 15.912 15.912 0 0 0 889.325 74.171 Q 890.245 73.365 891.214 72.323 A 39.834 39.834 0 0 0 893.2 70 Q 896.3 66.1 900.5 59.35 Q 904.7 52.6 911.3 41.8 L 895.2 12.4 Q 894.3 10.7 893.5 9.25 Q 892.7 7.8 891.5 6.65 Q 890.42 5.615 888.731 4.782 A 16.373 16.373 0 0 0 888.35 4.6 A 17.76 17.76 0 0 0 886.726 3.953 Q 885.889 3.663 884.909 3.398 A 39.076 39.076 0 0 0 883.3 3 A 0.036 0.036 0 0 1 883.328 2.976 Q 883.496 2.906 884.662 2.864 A 52.971 52.971 0 0 1 885.1 2.85 Q 886.856 2.801 889.47 2.8 A 288.172 288.172 0 0 1 889.6 2.8 Q 892.3 2.8 895.55 2.85 Q 898.8 2.9 901.6 2.9 A 265.647 265.647 0 0 1 903.588 2.907 Q 904.369 2.913 905.072 2.924 A 137.045 137.045 0 0 1 906.4 2.95 Q 908.102 2.993 908.573 2.999 A 10.113 10.113 0 0 0 908.7 3 Q 906.5 4 905.55 5.1 A 2.54 2.54 0 0 0 905.016 6.157 Q 904.787 7.062 905.032 8.357 A 9.007 9.007 0 0 0 905.05 8.45 Q 905.5 10.7 907.5 14.5 Q 909.031 17.409 911.618 21.843 A 431.3 431.3 0 0 0 913.3 24.7 L 913.3 24.6 L 917.5 32.6 A 10.849 10.849 0 0 1 917.821 31.96 Q 918.412 30.863 919.65 28.95 Q 921.3 26.4 923.2 23.2 A 153.216 153.216 0 0 0 926.487 17.37 A 168.048 168.048 0 0 0 926.95 16.5 A 47.505 47.505 0 0 0 928.387 13.552 Q 929.194 11.731 929.7 10.1 A 16.098 16.098 0 0 0 930.08 8.655 Q 930.496 6.681 930.2 5.2 A 2.691 2.691 0 0 0 929.672 4.016 Q 929.236 3.476 928.488 3.217 A 4.451 4.451 0 0 0 927.401 3 L 947.3 3 A 11.552 11.552 0 0 0 944.462 3.623 A 10.383 10.383 0 0 0 943.45 4.05 Q 941.7 4.9 940.25 6.2 Q 938.8 7.5 937.6 9.15 A 102.522 102.522 0 0 0 935.35 12.376 A 111.874 111.874 0 0 0 935.2 12.6 Z M 416.5 41.3 L 417 71 A 8.14 8.14 0 0 0 417.338 72.704 A 6.009 6.009 0 0 0 418.25 74.5 A 11.706 11.706 0 0 0 419.373 75.798 A 8.991 8.991 0 0 0 420.5 76.75 A 10.763 10.763 0 0 0 421.372 77.31 Q 422.075 77.713 422.7 77.9 A 29.824 29.824 0 0 0 423.047 78.002 Q 423.7 78.189 423.881 78.199 A 0.345 0.345 0 0 0 423.9 78.2 L 399.7 78.2 Q 401.867 77.711 403.301 76.855 A 6.88 6.88 0 0 0 404.4 76.05 Q 405.936 74.658 406.458 71.287 A 18.451 18.451 0 0 0 406.5 71 L 406.6 11.1 Q 406.353 8.957 405.46 7.527 A 5.875 5.875 0 0 0 405.05 6.95 Q 403.888 5.509 402.639 4.716 A 7.219 7.219 0 0 0 402.45 4.6 A 15.899 15.899 0 0 0 401.394 4.024 Q 400.885 3.772 400.417 3.595 A 8.261 8.261 0 0 0 400 3.45 Q 398.9 3.1 398.9 2.8 L 451.5 3 A 42.922 42.922 0 0 1 451.285 5.671 A 53.15 53.15 0 0 1 451.05 7.5 A 78.45 78.45 0 0 1 450.495 10.821 A 67.557 67.557 0 0 1 450.25 12.05 A 50.764 50.764 0 0 1 449.847 13.826 Q 449.648 14.631 449.44 15.339 A 28.278 28.278 0 0 1 449.3 15.8 Q 448.8 17.4 448.5 18 Q 448.5 17.005 448.412 15.746 A 50.592 50.592 0 0 0 448.35 14.95 Q 448.2 13.2 447.5 11.65 A 6.792 6.792 0 0 0 445.918 9.472 A 8.327 8.327 0 0 0 445.3 8.95 A 4.975 4.975 0 0 0 443.755 8.169 Q 443.061 7.95 442.22 7.861 A 11.607 11.607 0 0 0 441 7.8 L 417.9 7.5 Q 417.409 7.5 417.106 7.689 A 0.918 0.918 0 0 0 416.8 8 A 2.064 2.064 0 0 0 416.542 8.703 A 2.803 2.803 0 0 0 416.5 9.2 L 416.5 34.5 A 1.728 1.728 0 0 0 416.559 34.975 Q 416.712 35.507 417.256 35.649 A 1.768 1.768 0 0 0 417.7 35.7 Q 425.661 35.7 430.862 35.66 A 802.903 802.903 0 0 0 432.05 35.65 Q 437.5 35.6 440.6 35.35 Q 443.021 35.155 444.374 34.746 A 5.794 5.794 0 0 0 445.05 34.5 Q 446.4 33.9 447.2 32.7 Q 447.6 34.9 447.6 37.15 A 30.903 30.903 0 0 1 447.336 41.237 A 28.415 28.415 0 0 1 447.3 41.5 A 41.671 41.671 0 0 1 446.866 44.008 A 34.062 34.062 0 0 1 446.55 45.4 A 35.011 35.011 0 0 1 446.205 46.68 Q 445.913 47.688 445.6 48.5 A 12.696 12.696 0 0 0 445.116 46.331 Q 444.726 45.131 444.106 44.217 A 6.406 6.406 0 0 0 443.15 43.1 Q 441.2 41.3 438.65 40.6 Q 436.1 39.9 433.35 39.9 L 428.5 39.9 Q 425.6 39.9 423.1 39.95 Q 420.6 40 417.7 40 Q 416.756 40 416.555 40.804 A 2.046 2.046 0 0 0 416.5 41.3 Z M 130.9 2.9 L 156.5 2.9 Q 160.8 2.9 165.25 3.55 Q 169.7 4.2 173.2 7.1 A 15.75 15.75 0 0 1 176.569 10.939 A 14.455 14.455 0 0 1 177.6 12.95 Q 179 16.3 179.15 19.95 A 23.207 23.207 0 0 1 179.17 20.903 A 24.432 24.432 0 0 1 178.3 27.3 Q 177.3 31 175.6 34.2 A 27.105 27.105 0 0 1 173.003 38.222 A 23.585 23.585 0 0 1 171.65 39.8 A 17.213 17.213 0 0 1 169.486 41.764 A 12.904 12.904 0 0 1 166.9 43.3 A 5.786 5.786 0 0 1 168.479 44.048 Q 169.75 44.883 171.073 46.483 A 19.862 19.862 0 0 1 171.25 46.7 Q 173.351 49.314 175.538 52.887 A 84.152 84.152 0 0 1 175.85 53.4 Q 178.2 57.3 180.8 61.65 A 79.054 79.054 0 0 0 185.223 68.29 A 70.761 70.761 0 0 0 186.3 69.7 A 35.634 35.634 0 0 0 189.672 73.45 A 28.38 28.38 0 0 0 192.45 75.8 A 12.472 12.472 0 0 0 196.003 77.664 A 10.914 10.914 0 0 0 199.4 78.2 Q 196.306 78.2 193.874 78.176 A 324.644 324.644 0 0 1 191.8 78.15 A 139.543 139.543 0 0 1 189.609 78.098 Q 187.894 78.044 186.55 77.95 A 25.515 25.515 0 0 1 185.102 77.81 Q 183.897 77.656 183 77.4 Q 181.6 77 180.4 76.3 A 14.262 14.262 0 0 1 178.171 74.654 Q 177.207 73.794 176.274 72.697 A 23.666 23.666 0 0 1 176.15 72.55 A 65.017 65.017 0 0 1 172.438 67.649 A 71.01 71.01 0 0 1 172.2 67.3 Q 170.3 64.5 168.6 61.65 Q 166.9 58.8 165.5 56.5 Q 165 55.7 164.3 54.45 Q 163.6 53.2 162.8 51.95 Q 162 50.7 161.25 49.6 A 18.758 18.758 0 0 0 160.796 48.961 Q 160.554 48.637 160.33 48.372 A 7.612 7.612 0 0 0 159.9 47.9 A 2.456 2.456 0 0 0 159.358 47.5 Q 158.822 47.2 158.003 47.012 A 8.283 8.283 0 0 0 157.95 47 A 21.831 21.831 0 0 0 156.259 46.697 A 27.343 27.343 0 0 0 155 46.55 Q 153.4 46.4 152 46.35 Q 150.6 46.3 149.9 46.3 A 5.074 5.074 0 0 0 149.507 46.314 Q 149.126 46.344 148.886 46.436 A 0.994 0.994 0 0 0 148.75 46.5 A 0.549 0.549 0 0 0 148.537 46.734 Q 148.43 46.941 148.407 47.289 A 3.117 3.117 0 0 0 148.4 47.5 Q 148.4 52.778 148.36 56.255 A 362.953 362.953 0 0 1 148.35 57.05 Q 148.3 60.7 148.3 63.1 A 194.474 194.474 0 0 1 148.293 64.802 Q 148.287 65.47 148.276 66.069 A 98.718 98.718 0 0 1 148.25 67.2 Q 148.2 68.9 148.2 70.9 Q 148.2 73.2 149.7 74.9 A 6.59 6.59 0 0 0 150.828 75.888 Q 152.489 77.069 155.6 78.2 L 130.8 78.2 Q 133.398 77.401 134.848 76.501 A 6.424 6.424 0 0 0 134.85 76.5 A 11.699 11.699 0 0 0 135.839 75.818 Q 136.303 75.459 136.66 75.093 A 5.676 5.676 0 0 0 137.05 74.65 Q 137.8 73.7 138.05 72.75 A 8.125 8.125 0 0 0 138.234 71.865 A 5.955 5.955 0 0 0 138.3 71 A 999.589 999.589 0 0 0 138.537 63.074 Q 138.647 58.819 138.7 55.1 Q 138.8 48.1 138.8 41.9 Q 138.8 35.7 138.75 29.8 Q 138.7 23.9 138.7 17.3 A 260.913 260.913 0 0 0 138.694 15.447 Q 138.675 12.813 138.6 11.05 A 13.262 13.262 0 0 0 138.454 9.541 Q 138.332 8.767 138.115 8.122 A 6.159 6.159 0 0 0 137.75 7.25 A 5.682 5.682 0 0 0 136.19 5.39 A 7.278 7.278 0 0 0 135.4 4.85 A 14.715 14.715 0 0 0 134.273 4.251 Q 132.985 3.632 131.162 2.991 A 48.595 48.595 0 0 0 130.9 2.9 Z M 526.6 2.9 L 552.2 2.9 Q 556.5 2.9 560.95 3.55 Q 565.4 4.2 568.9 7.1 A 15.75 15.75 0 0 1 572.269 10.939 A 14.455 14.455 0 0 1 573.3 12.95 Q 574.7 16.3 574.85 19.95 A 23.207 23.207 0 0 1 574.87 20.903 A 24.432 24.432 0 0 1 574 27.3 Q 573 31 571.3 34.2 A 27.105 27.105 0 0 1 568.703 38.222 A 23.585 23.585 0 0 1 567.35 39.8 A 17.213 17.213 0 0 1 565.186 41.764 A 12.904 12.904 0 0 1 562.6 43.3 A 5.786 5.786 0 0 1 564.179 44.048 Q 565.45 44.883 566.773 46.483 A 19.862 19.862 0 0 1 566.95 46.7 Q 569.051 49.314 571.238 52.887 A 84.152 84.152 0 0 1 571.55 53.4 Q 573.9 57.3 576.5 61.65 A 79.054 79.054 0 0 0 580.923 68.29 A 70.761 70.761 0 0 0 582 69.7 A 35.634 35.634 0 0 0 585.372 73.45 A 28.38 28.38 0 0 0 588.15 75.8 A 12.472 12.472 0 0 0 591.703 77.664 A 10.914 10.914 0 0 0 595.1 78.2 Q 592.006 78.2 589.574 78.176 A 324.644 324.644 0 0 1 587.5 78.15 A 139.543 139.543 0 0 1 585.309 78.098 Q 583.594 78.044 582.25 77.95 A 25.515 25.515 0 0 1 580.802 77.81 Q 579.597 77.656 578.7 77.4 Q 577.3 77 576.1 76.3 A 14.262 14.262 0 0 1 573.871 74.654 Q 572.907 73.794 571.974 72.697 A 23.666 23.666 0 0 1 571.85 72.55 A 65.017 65.017 0 0 1 568.138 67.649 A 71.01 71.01 0 0 1 567.9 67.3 Q 566 64.5 564.3 61.65 Q 562.6 58.8 561.2 56.5 Q 560.7 55.7 560 54.45 Q 559.3 53.2 558.5 51.95 Q 557.7 50.7 556.95 49.6 A 18.758 18.758 0 0 0 556.496 48.961 Q 556.254 48.637 556.03 48.372 A 7.612 7.612 0 0 0 555.6 47.9 A 2.456 2.456 0 0 0 555.058 47.5 Q 554.522 47.2 553.703 47.012 A 8.283 8.283 0 0 0 553.65 47 A 21.831 21.831 0 0 0 551.959 46.697 A 27.343 27.343 0 0 0 550.7 46.55 Q 549.1 46.4 547.7 46.35 Q 546.3 46.3 545.6 46.3 A 5.074 5.074 0 0 0 545.207 46.314 Q 544.826 46.344 544.586 46.436 A 0.994 0.994 0 0 0 544.45 46.5 A 0.549 0.549 0 0 0 544.237 46.734 Q 544.13 46.941 544.107 47.289 A 3.117 3.117 0 0 0 544.1 47.5 Q 544.1 52.778 544.06 56.255 A 362.953 362.953 0 0 1 544.05 57.05 Q 544 60.7 544 63.1 A 194.474 194.474 0 0 1 543.993 64.802 Q 543.987 65.47 543.976 66.069 A 98.718 98.718 0 0 1 543.95 67.2 Q 543.9 68.9 543.9 70.9 Q 543.9 73.2 545.4 74.9 A 6.59 6.59 0 0 0 546.528 75.888 Q 548.189 77.069 551.3 78.2 L 526.5 78.2 Q 529.098 77.401 530.548 76.501 A 6.424 6.424 0 0 0 530.55 76.5 A 11.699 11.699 0 0 0 531.539 75.818 Q 532.003 75.459 532.36 75.093 A 5.676 5.676 0 0 0 532.75 74.65 Q 533.5 73.7 533.75 72.75 A 8.125 8.125 0 0 0 533.934 71.865 A 5.955 5.955 0 0 0 534 71 A 999.589 999.589 0 0 0 534.237 63.074 Q 534.347 58.819 534.4 55.1 Q 534.5 48.1 534.5 41.9 Q 534.5 35.7 534.45 29.8 Q 534.4 23.9 534.4 17.3 A 260.913 260.913 0 0 0 534.394 15.447 Q 534.375 12.813 534.3 11.05 A 13.262 13.262 0 0 0 534.154 9.541 Q 534.032 8.767 533.815 8.122 A 6.159 6.159 0 0 0 533.45 7.25 A 5.682 5.682 0 0 0 531.89 5.39 A 7.278 7.278 0 0 0 531.1 4.85 A 14.715 14.715 0 0 0 529.973 4.251 Q 528.685 3.632 526.862 2.991 A 48.595 48.595 0 0 0 526.6 2.9 Z M 660.9 2.9 L 686.5 2.9 Q 690.8 2.9 695.25 3.55 Q 699.7 4.2 703.2 7.1 A 15.75 15.75 0 0 1 706.569 10.939 A 14.455 14.455 0 0 1 707.6 12.95 Q 709 16.3 709.15 19.95 A 23.207 23.207 0 0 1 709.17 20.903 A 24.432 24.432 0 0 1 708.3 27.3 Q 707.3 31 705.6 34.2 A 27.105 27.105 0 0 1 703.003 38.222 A 23.585 23.585 0 0 1 701.65 39.8 A 17.213 17.213 0 0 1 699.486 41.764 A 12.904 12.904 0 0 1 696.9 43.3 A 5.786 5.786 0 0 1 698.479 44.048 Q 699.75 44.883 701.073 46.483 A 19.862 19.862 0 0 1 701.25 46.7 Q 703.351 49.314 705.538 52.887 A 84.152 84.152 0 0 1 705.85 53.4 Q 708.2 57.3 710.8 61.65 A 79.054 79.054 0 0 0 715.223 68.29 A 70.761 70.761 0 0 0 716.3 69.7 A 35.634 35.634 0 0 0 719.672 73.45 A 28.38 28.38 0 0 0 722.45 75.8 A 12.472 12.472 0 0 0 726.003 77.664 A 10.914 10.914 0 0 0 729.4 78.2 Q 726.306 78.2 723.874 78.176 A 324.644 324.644 0 0 1 721.8 78.15 A 139.543 139.543 0 0 1 719.609 78.098 Q 717.894 78.044 716.55 77.95 A 25.515 25.515 0 0 1 715.102 77.81 Q 713.897 77.656 713 77.4 Q 711.6 77 710.4 76.3 A 14.262 14.262 0 0 1 708.171 74.654 Q 707.207 73.794 706.274 72.697 A 23.666 23.666 0 0 1 706.15 72.55 A 65.017 65.017 0 0 1 702.438 67.649 A 71.01 71.01 0 0 1 702.2 67.3 Q 700.3 64.5 698.6 61.65 Q 696.9 58.8 695.5 56.5 Q 695 55.7 694.3 54.45 Q 693.6 53.2 692.8 51.95 Q 692 50.7 691.25 49.6 A 18.758 18.758 0 0 0 690.796 48.961 Q 690.554 48.637 690.33 48.372 A 7.612 7.612 0 0 0 689.9 47.9 A 2.456 2.456 0 0 0 689.358 47.5 Q 688.822 47.2 688.003 47.012 A 8.283 8.283 0 0 0 687.95 47 A 21.831 21.831 0 0 0 686.259 46.697 A 27.343 27.343 0 0 0 685 46.55 Q 683.4 46.4 682 46.35 Q 680.6 46.3 679.9 46.3 A 5.074 5.074 0 0 0 679.507 46.314 Q 679.126 46.344 678.886 46.436 A 0.994 0.994 0 0 0 678.75 46.5 A 0.549 0.549 0 0 0 678.537 46.734 Q 678.43 46.941 678.407 47.289 A 3.117 3.117 0 0 0 678.4 47.5 Q 678.4 52.778 678.36 56.255 A 362.953 362.953 0 0 1 678.35 57.05 Q 678.3 60.7 678.3 63.1 A 194.474 194.474 0 0 1 678.293 64.802 Q 678.287 65.47 678.276 66.069 A 98.718 98.718 0 0 1 678.25 67.2 Q 678.2 68.9 678.2 70.9 Q 678.2 73.2 679.7 74.9 A 6.59 6.59 0 0 0 680.828 75.888 Q 682.489 77.069 685.6 78.2 L 660.8 78.2 Q 663.398 77.401 664.848 76.501 A 6.424 6.424 0 0 0 664.85 76.5 A 11.699 11.699 0 0 0 665.839 75.818 Q 666.303 75.459 666.66 75.093 A 5.676 5.676 0 0 0 667.05 74.65 Q 667.8 73.7 668.05 72.75 A 8.125 8.125 0 0 0 668.234 71.865 A 5.955 5.955 0 0 0 668.3 71 A 999.589 999.589 0 0 0 668.537 63.074 Q 668.647 58.819 668.7 55.1 Q 668.8 48.1 668.8 41.9 Q 668.8 35.7 668.75 29.8 Q 668.7 23.9 668.7 17.3 A 260.913 260.913 0 0 0 668.694 15.447 Q 668.675 12.813 668.6 11.05 A 13.262 13.262 0 0 0 668.454 9.541 Q 668.332 8.767 668.115 8.122 A 6.159 6.159 0 0 0 667.75 7.25 A 5.682 5.682 0 0 0 666.19 5.39 A 7.278 7.278 0 0 0 665.4 4.85 A 14.715 14.715 0 0 0 664.273 4.251 Q 662.985 3.632 661.162 2.991 A 48.595 48.595 0 0 0 660.9 2.9 Z M 219.3 71 L 219.8 7.9 L 205.6 8.1 A 30.181 30.181 0 0 0 203.554 8.166 Q 202.456 8.241 201.5 8.4 Q 199.7 8.7 198.4 9.5 A 6.282 6.282 0 0 0 196.92 10.783 A 8.352 8.352 0 0 0 196.15 11.85 Q 195.46 12.976 194.902 14.657 A 24.325 24.325 0 0 0 194.5 16 A 0.965 0.965 0 0 1 194.374 15.747 Q 194.222 15.317 194.141 14.386 A 19.006 19.006 0 0 1 194.1 13.8 Q 194 12 194.15 9.8 A 74.998 74.998 0 0 1 194.377 7.148 A 63.088 63.088 0 0 1 194.55 5.65 A 19.85 19.85 0 0 1 194.68 4.779 Q 194.892 3.56 195.186 3.025 A 1.793 1.793 0 0 1 195.2 3 A 5066.19 5066.19 0 0 0 201.866 3.044 Q 211.438 3.1 218.45 3.1 L 233.75 3.1 L 242.9 3.1 Q 245.35 3.1 247.009 3.071 A 101.148 101.148 0 0 0 247.95 3.05 Q 249.8 3 250.8 3 L 253.4 3 A 0.466 0.466 0 0 1 253.742 3.172 Q 254.107 3.564 254.35 4.85 Q 254.7 6.7 254.85 9.1 Q 255 11.5 254.85 13.8 Q 254.739 15.507 254.435 16.443 A 3.169 3.169 0 0 1 254.2 17 Q 253.7 14.5 252.4 12.85 Q 251.1 11.2 249.35 10.15 A 13.159 13.159 0 0 0 246.44 8.84 A 12.049 12.049 0 0 0 245.75 8.65 A 16.584 16.584 0 0 0 243.855 8.299 A 12.758 12.758 0 0 0 242.3 8.2 L 230.4 7.9 Q 230.5 23.4 230.05 38.95 Q 229.6 54.5 230.4 71.1 Q 230.4 72.2 230.7 73.15 A 4.311 4.311 0 0 0 231.29 74.326 A 5.591 5.591 0 0 0 231.8 74.95 A 6.667 6.667 0 0 0 232.557 75.632 Q 232.952 75.94 233.437 76.241 A 13.717 13.717 0 0 0 234.05 76.6 Q 235.5 77.4 237.9 78.2 L 212.1 78.2 Q 211.607 78.2 212.571 77.715 A 10.838 10.838 0 0 1 212.6 77.7 Q 213.272 77.364 214.147 76.848 A 47.595 47.595 0 0 0 215.05 76.3 Q 216.5 75.4 217.8 74.05 Q 219.1 72.7 219.3 71 Z M 759.7 75.9 L 759.7 75.8 A 24.155 24.155 0 0 1 756.005 78.037 Q 753.683 79.158 751.389 79.54 A 14.829 14.829 0 0 1 751 79.6 Q 746.7 80.2 742.95 79.5 A 32.158 32.158 0 0 1 739.088 78.54 A 25.196 25.196 0 0 1 736.25 77.45 Q 733.991 76.416 732.466 75.705 A 260.348 260.348 0 0 1 731.6 75.3 A 7.679 7.679 0 0 1 730.763 73.427 Q 730.496 72.551 730.362 71.509 A 16.313 16.313 0 0 1 730.25 70.2 A 50.216 50.216 0 0 1 730.194 67.849 Q 730.194 66.171 730.313 64.597 A 38.652 38.652 0 0 1 730.35 64.15 Q 730.514 62.284 730.763 60.889 A 18.448 18.448 0 0 1 731.05 59.55 A 13.129 13.129 0 0 1 731.144 59.204 Q 731.521 57.886 731.7 58.6 A 62.825 62.825 0 0 0 732.567 62.905 A 52.24 52.24 0 0 0 733.2 65.3 Q 734.1 68.4 735.75 70.7 Q 737.4 73 740.05 74.35 Q 742.337 75.515 745.63 75.675 A 22.117 22.117 0 0 0 746.7 75.7 Q 749.2 75.7 751.5 74.85 Q 753.8 74 755.6 72.5 Q 757.4 71 758.45 68.8 A 10.836 10.836 0 0 0 759.45 65.057 A 13.101 13.101 0 0 0 759.5 63.9 A 15.837 15.837 0 0 0 758.795 59.111 A 14.068 14.068 0 0 0 757.5 56.2 A 32.658 32.658 0 0 0 753.095 50.366 A 36.503 36.503 0 0 0 752.55 49.8 A 99.127 99.127 0 0 0 747.426 44.958 A 111.126 111.126 0 0 0 746.15 43.85 Q 742.7 40.9 739.75 37.5 Q 736.8 34.1 734.8 29.9 A 20.299 20.299 0 0 1 733.081 24.142 A 26.631 26.631 0 0 1 732.8 20.2 A 27.33 27.33 0 0 1 733.183 15.509 Q 733.66 12.773 734.73 10.496 A 17.206 17.206 0 0 1 734.8 10.35 Q 736.8 6.2 740.95 3.95 A 18.197 18.197 0 0 1 745.324 2.302 Q 748.077 1.63 751.45 1.55 A 31.965 31.965 0 0 1 752.205 1.541 Q 758.306 1.541 766.4 3.8 Q 766.954 5.738 766.954 8.06 A 19.877 19.877 0 0 1 766.95 8.45 Q 766.9 11 766.6 13.2 A 51.776 51.776 0 0 1 766.388 14.618 Q 766.18 15.881 765.95 16.8 A 70.76 70.76 0 0 1 765.878 17.087 Q 765.6 18.178 765.6 18 Q 765.2 15.6 764.5 13.35 Q 763.8 11.1 762.4 9.35 Q 761 7.6 758.6 6.55 Q 756.84 5.78 754.273 5.575 A 24.786 24.786 0 0 0 752.3 5.5 A 15.522 15.522 0 0 0 748.451 5.954 A 11.598 11.598 0 0 0 744 8.15 Q 740.7 10.8 740.7 16.2 Q 740.7 19.8 742.75 22.7 A 31.714 31.714 0 0 0 745.698 26.261 A 39.574 39.574 0 0 0 747.85 28.35 A 169.609 169.609 0 0 0 752.28 32.202 A 199.783 199.783 0 0 0 754.45 34 Q 758 36.9 761.05 40.4 Q 764.1 43.9 766.15 48.3 A 21.459 21.459 0 0 1 767.862 54.019 A 28.496 28.496 0 0 1 768.2 58.5 A 22.506 22.506 0 0 1 766.573 67.195 Q 764.547 72.086 759.996 75.67 A 26.188 26.188 0 0 1 759.7 75.9 Z M 99.3 52.2 L 77.9 52.2 L 69.9 73.4 A 1.91 1.91 0 0 0 69.8 73.774 Q 69.717 74.301 69.979 74.781 A 1.929 1.929 0 0 0 70.05 74.9 A 5.663 5.663 0 0 0 70.651 75.672 A 7.411 7.411 0 0 0 71.25 76.25 Q 72 76.9 72.9 77.4 Q 73.755 77.875 74.339 78.17 A 20.975 20.975 0 0 0 74.4 78.2 L 55.3 78.2 A 7.709 7.709 0 0 0 57.998 77.366 A 9.466 9.466 0 0 0 58.8 76.9 Q 60.5 75.8 61.9 74.3 Q 63.3 72.8 64.35 71.05 Q 65.33 69.416 65.918 68 A 16.463 16.463 0 0 0 66 67.8 L 91.1 0 L 115.7 65.7 Q 116.3 67.3 117.25 69.25 A 25.051 25.051 0 0 0 119.508 72.992 A 27.429 27.429 0 0 0 119.55 73.05 A 23.838 23.838 0 0 0 121.876 75.792 A 21.385 21.385 0 0 0 122.45 76.35 Q 124 77.8 125.8 78.2 L 102.8 78.2 A 6.868 6.868 0 0 0 103.511 77.978 Q 103.862 77.848 104.245 77.671 A 12.945 12.945 0 0 0 104.6 77.5 A 6.992 6.992 0 0 0 105.682 76.836 A 5.84 5.84 0 0 0 106.3 76.3 A 3.681 3.681 0 0 0 107.094 75.144 A 3.505 3.505 0 0 0 107.25 74.7 Q 107.5 73.8 106.9 72.7 L 99.3 52.2 Z M 495 52.2 L 473.6 52.2 L 465.6 73.4 A 1.91 1.91 0 0 0 465.5 73.774 Q 465.417 74.301 465.679 74.781 A 1.929 1.929 0 0 0 465.75 74.9 A 5.663 5.663 0 0 0 466.351 75.672 A 7.411 7.411 0 0 0 466.95 76.25 Q 467.7 76.9 468.6 77.4 Q 469.455 77.875 470.039 78.17 A 20.975 20.975 0 0 0 470.1 78.2 L 451 78.2 A 7.709 7.709 0 0 0 453.698 77.366 A 9.466 9.466 0 0 0 454.5 76.9 Q 456.2 75.8 457.6 74.3 Q 459 72.8 460.05 71.05 Q 461.03 69.416 461.618 68 A 16.463 16.463 0 0 0 461.7 67.8 L 486.8 0 L 511.4 65.7 Q 512 67.3 512.95 69.25 A 25.051 25.051 0 0 0 515.208 72.992 A 27.429 27.429 0 0 0 515.25 73.05 A 23.838 23.838 0 0 0 517.576 75.792 A 21.385 21.385 0 0 0 518.15 76.35 Q 519.7 77.8 521.5 78.2 L 498.5 78.2 A 6.868 6.868 0 0 0 499.211 77.978 Q 499.562 77.848 499.945 77.671 A 12.945 12.945 0 0 0 500.3 77.5 A 6.992 6.992 0 0 0 501.382 76.836 A 5.84 5.84 0 0 0 502 76.3 A 3.681 3.681 0 0 0 502.794 75.144 A 3.505 3.505 0 0 0 502.95 74.7 Q 503.2 73.8 502.6 72.7 L 495 52.2 Z M 963.3 50.5 L 963.3 17.1 Q 963.3 13.969 963.26 11.839 A 142.049 142.049 0 0 0 963.25 11.35 A 12.672 12.672 0 0 0 963.105 9.653 Q 962.918 8.476 962.5 7.55 A 5.787 5.787 0 0 0 960.624 5.259 A 7.078 7.078 0 0 0 960.25 5 Q 958.85 4.097 956.267 3.193 A 40.922 40.922 0 0 0 955.7 3 L 979.8 3 Q 978.2 3.5 976.95 4.05 A 8.816 8.816 0 0 0 975.589 4.791 A 7.315 7.315 0 0 0 974.8 5.4 A 4.915 4.915 0 0 0 973.508 7.252 A 5.757 5.757 0 0 0 973.45 7.4 Q 973.1 8.333 973.022 9.628 A 12.87 12.87 0 0 0 973 10.4 Q 973 19.1 972.9 26.5 Q 972.8 33.9 972.75 41 Q 972.7 48.1 972.85 55.35 Q 973 62.6 973.4 70.8 A 9.366 9.366 0 0 0 973.557 72.114 Q 973.69 72.791 973.925 73.348 A 4.787 4.787 0 0 0 974.2 73.9 Q 974.9 75.1 976 75.9 Q 977.1 76.7 978.5 77.25 Q 979.9 77.8 981.3 78.2 L 955.7 78.2 A 9.736 9.736 0 0 0 958.583 77.617 Q 961.628 76.449 962.518 73.051 A 10.849 10.849 0 0 0 962.8 71.5 A 84.054 84.054 0 0 0 963.354 61.857 A 84.783 84.783 0 0 0 963.35 61.05 Q 963.3 55.8 963.3 50.5 Z M 148.5 9.1 L 148.5 39.8 Q 148.5 40.5 148.65 40.95 A 1.218 1.218 0 0 0 148.854 41.317 Q 148.965 41.458 149.124 41.593 A 2.968 2.968 0 0 0 149.4 41.8 A 1.638 1.638 0 0 0 149.662 41.956 Q 149.951 42.097 150.411 42.227 A 9.98 9.98 0 0 0 150.9 42.35 A 15.764 15.764 0 0 0 152.483 42.623 A 18.504 18.504 0 0 0 153.25 42.7 Q 154.5 42.8 155.7 42.85 Q 156.9 42.9 157.6 42.9 Q 159.5 42.9 160.85 42.65 Q 162.2 42.4 163.8 41.1 Q 167.1 38.4 168.25 34.15 A 32.516 32.516 0 0 0 169.36 27.343 A 29.572 29.572 0 0 0 169.4 25.8 Q 169.4 22.4 168.5 19.05 Q 167.6 15.7 165.7 13 Q 163.8 10.3 160.8 8.65 Q 157.896 7.053 153.773 7.002 A 22.092 22.092 0 0 0 153.5 7 Q 153.117 7 152.529 7.029 A 42.512 42.512 0 0 0 152.15 7.05 Q 151.3 7.1 150.5 7.3 A 4.876 4.876 0 0 0 149.663 7.588 A 3.989 3.989 0 0 0 149.1 7.9 A 1.292 1.292 0 0 0 148.518 8.837 A 1.884 1.884 0 0 0 148.5 9.1 Z M 544.2 9.1 L 544.2 39.8 Q 544.2 40.5 544.35 40.95 A 1.218 1.218 0 0 0 544.554 41.317 Q 544.665 41.458 544.824 41.593 A 2.968 2.968 0 0 0 545.1 41.8 A 1.638 1.638 0 0 0 545.362 41.956 Q 545.651 42.097 546.111 42.227 A 9.98 9.98 0 0 0 546.6 42.35 A 15.764 15.764 0 0 0 548.183 42.623 A 18.504 18.504 0 0 0 548.95 42.7 Q 550.2 42.8 551.4 42.85 Q 552.6 42.9 553.3 42.9 Q 555.2 42.9 556.55 42.65 Q 557.9 42.4 559.5 41.1 Q 562.8 38.4 563.95 34.15 A 32.516 32.516 0 0 0 565.06 27.343 A 29.572 29.572 0 0 0 565.1 25.8 Q 565.1 22.4 564.2 19.05 Q 563.3 15.7 561.4 13 Q 559.5 10.3 556.5 8.65 Q 553.596 7.053 549.473 7.002 A 22.092 22.092 0 0 0 549.2 7 Q 548.817 7 548.229 7.029 A 42.512 42.512 0 0 0 547.85 7.05 Q 547 7.1 546.2 7.3 A 4.876 4.876 0 0 0 545.363 7.588 A 3.989 3.989 0 0 0 544.8 7.9 A 1.292 1.292 0 0 0 544.218 8.837 A 1.884 1.884 0 0 0 544.2 9.1 Z M 678.5 9.1 L 678.5 39.8 Q 678.5 40.5 678.65 40.95 A 1.218 1.218 0 0 0 678.854 41.317 Q 678.965 41.458 679.124 41.593 A 2.968 2.968 0 0 0 679.4 41.8 A 1.638 1.638 0 0 0 679.662 41.956 Q 679.951 42.097 680.411 42.227 A 9.98 9.98 0 0 0 680.9 42.35 A 15.764 15.764 0 0 0 682.483 42.623 A 18.504 18.504 0 0 0 683.25 42.7 Q 684.5 42.8 685.7 42.85 Q 686.9 42.9 687.6 42.9 Q 689.5 42.9 690.85 42.65 Q 692.2 42.4 693.8 41.1 Q 697.1 38.4 698.25 34.15 A 32.516 32.516 0 0 0 699.36 27.343 A 29.572 29.572 0 0 0 699.4 25.8 Q 699.4 22.4 698.5 19.05 Q 697.6 15.7 695.7 13 Q 693.8 10.3 690.8 8.65 Q 687.896 7.053 683.773 7.002 A 22.092 22.092 0 0 0 683.5 7 Q 683.117 7 682.529 7.029 A 42.512 42.512 0 0 0 682.15 7.05 Q 681.3 7.1 680.5 7.3 A 4.876 4.876 0 0 0 679.663 7.588 A 3.989 3.989 0 0 0 679.1 7.9 A 1.292 1.292 0 0 0 678.518 8.837 A 1.884 1.884 0 0 0 678.5 9.1 Z M 88.9 22.3 L 79.3 47.7 L 98.4 47.7 L 88.9 22.3 Z M 484.6 22.3 L 475 47.7 L 494.1 47.7 L 484.6 22.3 Z" vector-effect="non-scaling-stroke"/></g></svg>