<svg width="50.2" height="75.25" viewBox="0 0 50.2 75.25" xmlns="http://www.w3.org/2000/svg"><g id="svgGroup" stroke-linecap="round" fill-rule="evenodd" font-size="9pt" stroke="#000" stroke-width="0.25mm" fill="#000" style="stroke:#000;stroke-width:0.25mm;fill:#000"><path d="M 47.9 75.2 L 0.9 75.2 Q 0.9 75.379 1.817 74.919 A 15.887 15.887 0 0 0 2.05 74.8 A 14.575 14.575 0 0 0 3.065 74.214 Q 3.791 73.757 4.6 73.15 Q 6 72.1 7.2 70.75 A 6.916 6.916 0 0 0 7.959 69.73 Q 8.362 69.062 8.527 68.382 A 4.082 4.082 0 0 0 8.6 68 Q 9 64.8 9.05 61.45 Q 9.1 58.1 9.1 54.9 L 9.1 37.75 L 9.1 25.6 L 9.1 17.5 L 9.1 12.4 Q 9.1 10.869 9.071 9.865 A 35.037 35.037 0 0 0 9.05 9.3 Q 9 8.2 8.9 7.2 A 13.097 13.097 0 0 0 8.762 6.047 Q 8.666 5.47 8.52 4.967 A 7.937 7.937 0 0 0 8.5 4.9 Q 8.2 3.9 7.3 3.1 A 6.555 6.555 0 0 0 6.55 2.531 Q 6.146 2.265 5.649 2.005 A 15.695 15.695 0 0 0 4.7 1.55 A 19.279 19.279 0 0 0 3.511 1.076 Q 2.063 0.55 0 0 L 28.4 0.2 A 31.972 31.972 0 0 0 26.652 0.657 Q 24.869 1.181 23.7 1.8 Q 22.349 2.515 21.503 3.357 A 5.867 5.867 0 0 0 21.1 3.8 A 6.374 6.374 0 0 0 20.418 4.807 A 4.732 4.732 0 0 0 19.95 6.05 Q 19.7 7.2 19.7 8.3 Q 19.5 14.8 19.4 20.3 A 1274.003 1274.003 0 0 0 19.263 29.657 A 1153.082 1153.082 0 0 0 19.25 30.95 Q 19.2 36.1 19.2 41.2 L 19.2 52 Q 19.2 53.2 19.25 55.6 Q 19.3 58 19.55 60.55 A 41.195 41.195 0 0 0 19.96 63.601 A 34.026 34.026 0 0 0 20.3 65.3 A 13.991 13.991 0 0 0 20.596 66.406 Q 21.019 67.746 21.6 68.4 A 5.581 5.581 0 0 0 22.587 69.177 Q 23.057 69.471 23.624 69.717 A 9.277 9.277 0 0 0 23.7 69.75 Q 25 70.3 26.4 70.6 Q 27.8 70.9 29.2 71 Q 30.6 71.1 31.7 71.1 L 36.65 71.1 Q 39.4 71.1 42 70.25 A 12.141 12.141 0 0 0 45.809 68.166 A 14.762 14.762 0 0 0 46.8 67.3 Q 49 65.2 50.2 61.1 Q 50.2 62.172 50.083 63.537 A 45.203 45.203 0 0 1 50 64.4 Q 49.8 66.3 49.5 68.25 Q 49.2 70.2 48.75 72.05 Q 48.405 73.466 48.09 74.56 A 37.206 37.206 0 0 1 47.9 75.2 Z" vector-effect="non-scaling-stroke"/></g></svg>